<svg id="Layer_1" data-name="Layer 1" xmlns="http://www.w3.org/2000/svg" xmlns:xlink="http://www.w3.org/1999/xlink" viewBox="0 0 440.24 369.04"><defs><style>.cls-1{fill:#c8daea;}.cls-2{fill:#a9c9dc;}.cls-3{fill:url(#linear-gradient);}</style><linearGradient id="linear-gradient" x1="126.11" y1="380.8" x2="150.73" y2="420.18" gradientTransform="translate(-132.04 -1065.09) scale(3.43)" gradientUnits="userSpaceOnUse"><stop offset="0" stop-color="#eff8fd"/><stop offset="1" stop-color="#fff"/></linearGradient></defs><title>Icon</title><g id="g4191"><path id="path2993" class="cls-1" d="M195.41,412.33c-13.16,0-10.8-5.06-15.52-17.54L141.44,268,380.25,118.88l28,7.42L385,189.71,195.41,412.33Z" transform="translate(-29.88 -65.48)"/><path id="path2989" class="cls-2" d="M195.41,412.33c10.12,0,14.5-4.72,20.24-10.12,8.76-8.43,121.42-118,121.42-118l-69.14-16.87-64.09,40.48L195.41,409v3.37Z" transform="translate(-29.88 -65.48)"/><path id="path2991" class="cls-3" d="M202.15,309.12,365.41,429.53c18.55,10.12,32,5.06,36.76-17.2l66.45-313C475.37,72,458.16,59.85,440.29,68L50.37,218.38c-26.65,10.8-26.31,25.64-4.72,32.05L145.82,281.8l231.73-146c10.79-6.75,20.91-3,12.82,4.38l-188.22,169Z" transform="translate(-29.88 -65.48)"/></g></svg>