<svg id="Capa_1" data-name="Capa 1" xmlns="http://www.w3.org/2000/svg" xmlns:xlink="http://www.w3.org/1999/xlink" viewBox="0 0 513.66 509.04"><defs><style>.cls-1{fill:#1985a1;opacity:0.96;isolation:isolate;}.cls-2{fill:#c8daea;}.cls-3{fill:#a9c9dd;}.cls-4{fill:url(#linear-gradient);}</style><linearGradient id="linear-gradient" x1="131.39" y1="386.04" x2="156.39" y2="426.04" gradientTransform="translate(-144.17 -1077.22) scale(3.43)" gradientUnits="userSpaceOnUse"><stop offset="0" stop-color="#eff7fc"/><stop offset="1" stop-color="#fff"/></linearGradient></defs><title>Travello Logo</title><path id="rect4169" class="cls-1" d="M51.08,1.31H459.27c29.12,0,52.73,24.19,52.73,54v401c0,29.85-23.61,54-52.73,54H51.08c-29.13,0-52.74-24.19-52.74-54V55.35C-1.66,25.5,22,1.31,51.08,1.31Z" transform="translate(1.66 -1.31)"/><g id="g4191"><path id="path2993" class="cls-2" d="M199.73,420.87c-13.37,0-11-5.14-15.76-17.81L144.91,274.25,387.46,122.83l28.43,7.54-23.64,64.4L199.73,420.87Z" transform="translate(1.66 -1.31)"/><path id="path2989" class="cls-3" d="M199.73,420.87c10.27,0,14.73-4.79,20.55-10.28,8.91-8.56,123.33-119.9,123.33-119.9l-70.23-17.13-65.09,41.11-8.56,102.78v3.42Z" transform="translate(1.66 -1.31)"/><path id="path2991" class="cls-4" d="M206.58,316l165.8,122.3c18.85,10.28,32.55,5.14,37.35-17.47L477.21,103c6.85-27.75-10.62-40.08-28.77-31.86l-396,152.79c-27.07,11-26.72,26-4.8,32.55l101.75,31.85L384.72,140c11-6.85,21.24-3.08,13,4.45L206.58,316Z" transform="translate(1.66 -1.31)"/></g></svg>